<?xml version="1.0" encoding="UTF-8" standalone="no"?>
<!-- Created with Inkscape (http://www.inkscape.org/) -->

<svg
   xmlns:dc="http://purl.org/dc/elements/1.1/"
   xmlns:cc="http://creativecommons.org/ns#"
   xmlns:rdf="http://www.w3.org/1999/02/22-rdf-syntax-ns#"
   xmlns:svg="http://www.w3.org/2000/svg"
   xmlns="http://www.w3.org/2000/svg"
   xmlns:xlink="http://www.w3.org/1999/xlink"
   xmlns:sodipodi="http://sodipodi.sourceforge.net/DTD/sodipodi-0.dtd"
   xmlns:inkscape="http://www.inkscape.org/namespaces/inkscape"
   width="157.32307mm"
   height="151.65343mm"
   viewBox="0 0 157.32308 151.65343"
   version="1.1"
   id="svg8"
   sodipodi:docname="2.svg"
   inkscape:version="0.92.5 (2060ec1f9f, 2020-04-08)">
  <defs
     id="defs2">
    <linearGradient
       inkscape:collect="always"
       id="linearGradient834-3">
      <stop
         style="stop-color:#7209aa;stop-opacity:1;"
         offset="0"
         id="stop830" />
      <stop
         style="stop-color:#7209aa;stop-opacity:0;"
         offset="1"
         id="stop832" />
    </linearGradient>
    <linearGradient
       inkscape:collect="always"
       id="linearGradient951">
      <stop
         style="stop-color:#4af3d5;stop-opacity:1;"
         offset="0"
         id="stop947" />
      <stop
         style="stop-color:#4af3d5;stop-opacity:0;"
         offset="1"
         id="stop949" />
    </linearGradient>
    <linearGradient
       inkscape:collect="always"
       xlink:href="#linearGradient951"
       id="linearGradient971"
       gradientUnits="userSpaceOnUse"
       x1="174.16795"
       y1="194.71349"
       x2="249.1797"
       y2="194.71349" />
    <linearGradient
       inkscape:collect="always"
       xlink:href="#linearGradient834-3"
       id="linearGradient836"
       x1="54.861626"
       y1="20.392687"
       x2="33.791363"
       y2="-30.701906"
       gradientUnits="userSpaceOnUse" />
    <filter
       style="color-interpolation-filters:sRGB;"
       inkscape:label="Drop Shadow"
       id="filter1217">
      <feFlood
         flood-opacity="0.498039"
         flood-color="rgb(0,0,0)"
         result="flood"
         id="feFlood1207" />
      <feComposite
         in="flood"
         in2="SourceGraphic"
         operator="in"
         result="composite1"
         id="feComposite1209" />
      <feGaussianBlur
         in="composite1"
         stdDeviation="3"
         result="blur"
         id="feGaussianBlur1211" />
      <feOffset
         dx="-2.8"
         dy="0.6"
         result="offset"
         id="feOffset1213" />
      <feComposite
         in="SourceGraphic"
         in2="offset"
         operator="over"
         result="composite2"
         id="feComposite1215" />
    </filter>
  </defs>
  <sodipodi:namedview
     id="base"
     pagecolor="#ffffff"
     bordercolor="#666666"
     borderopacity="1.0"
     inkscape:pageopacity="0.0"
     inkscape:pageshadow="2"
     inkscape:zoom="0.98994949"
     inkscape:cx="177.54601"
     inkscape:cy="316.39386"
     inkscape:document-units="mm"
     inkscape:current-layer="layer2"
     showgrid="false"
     inkscape:window-width="1920"
     inkscape:window-height="1012"
     inkscape:window-x="0"
     inkscape:window-y="0"
     inkscape:window-maximized="1" />
  <metadata
     id="metadata5">
    <rdf:RDF>
      <cc:Work
         rdf:about="">
        <dc:format>image/svg+xml</dc:format>
        <dc:type
           rdf:resource="http://purl.org/dc/dcmitype/StillImage" />
        <dc:title />
      </cc:Work>
    </rdf:RDF>
  </metadata>
  <g
     inkscape:label="Layer 1"
     inkscape:groupmode="layer"
     id="layer1"
     transform="translate(-18.796741,1.2700546)">
    <ellipse
       style="opacity:1;fill:#f8f8f8;fill-opacity:0.76491232;stroke:#fffbef;stroke-width:0.60000002;stroke-linecap:butt;stroke-linejoin:round;stroke-miterlimit:4;stroke-dasharray:none;stroke-dashoffset:0;stroke-opacity:1;paint-order:stroke fill markers"
       id="path902"
       cx="97.458275"
       cy="74.556656"
       rx="78.361534"
       ry="75.526711" />
  </g>
  <g
     inkscape:groupmode="layer"
     id="layer3"
     inkscape:label="Layer 3"
     transform="translate(23.097159,53.52819)">
    <ellipse
       ry="64.59417"
       rx="64.439247"
       style="opacity:1;fill:#6a6c71;fill-opacity:1;stroke:#fffbef;stroke-width:0.59999996;stroke-linecap:butt;stroke-linejoin:round;stroke-miterlimit:4;stroke-dasharray:none;stroke-dashoffset:0;stroke-opacity:1;paint-order:stroke fill markers"
       id="ellipse914"
       cx="57.520947"
       cy="24.140341" />
    <ellipse
       cy="23.516296"
       cx="57.412334"
       id="circle908"
       style="opacity:1;fill:#ffffff;fill-opacity:1;stroke:#dbd8d8;stroke-width:0;stroke-linecap:butt;stroke-linejoin:round;stroke-miterlimit:4;stroke-dasharray:none;stroke-dashoffset:0;stroke-opacity:1;paint-order:stroke fill markers;filter:url(#filter1217)"
       rx="64.565399"
       ry="63.809448" />
  </g>
  <g
     inkscape:groupmode="layer"
     id="layer4"
     inkscape:label="Layer 4"
     transform="translate(23.097159,53.52819)" />
  <g
     inkscape:groupmode="layer"
     id="layer2"
     inkscape:label="Layer 2"
     transform="translate(23.097159,53.52819)">
    <path
       id="rect853-6-2-1-9"
       style="opacity:1;fill:url(#linearGradient836);fill-opacity:1;stroke:none;stroke-width:0.59999996;stroke-linecap:butt;stroke-linejoin:round;stroke-miterlimit:4;stroke-dasharray:none;stroke-dashoffset:0;stroke-opacity:1;paint-order:stroke fill markers"
       d="m 56.059119,9.7268418 c 7.149306,-11.6711698 1.845134,-19.8453568 6.487589,-27.2472138 0.721645,-1.150577 1.607171,-2.045295 2.898162,-1.623468 l 7.93e-4,2.51e-4 c 1.291,0.421832 2.794536,2.263436 1.762477,3.146301 -8.154516,6.9756492 -2.47387,18.0221386 -6.48759,27.247212 -0.541859,1.245389 -1.607161,2.045297 -2.898164,1.623472 l -7.89e-4,-2.57e-4 C 56.530603,12.451319 55.349682,10.88499 56.059119,9.7268418 Z M 69.755207,-27.201281 c -0.0028,-0.0093 -0.0062,-0.01912 -0.0093,-0.02864 -2.277649,-0.08198 -4.266857,-1.818817 -4.990288,-4.357179 -0.03393,-0.0017 -0.06793,-0.0029 -0.101965,-0.0039 -0.529873,2.18238 -1.996609,3.879939 -3.860639,4.466446 l -0.256798,0.07248 c -0.382889,0.09488 -0.773162,0.141188 -1.164112,0.138116 1.133175,0.880091 1.944582,2.227225 2.275405,3.777756 0.231877,1.101532 0.211034,2.256869 -0.0604,3.348267 0.02893,0.0201 0.05784,0.04016 0.08702,0.05961 0.529886,-0.411932 1.116326,-0.71251 1.73305,-0.888271 1.42314,-0.402107 2.921602,-0.116934 4.159988,0.791703 0.02914,-0.02466 0.05812,-0.04961 0.08679,-0.07493 -0.05597,-0.193308 -0.104142,-0.389639 -0.144166,-0.588396 -0.48718,-2.56169 0.402161,-5.220497 2.245506,-6.713298 z m 4.273119,2.549191 c 5.919503,2.605793 8.568483,7.403787 12.0697,11.630535 0.816751,0.98601 0.928825,2.325923 0.01539,3.2231077 l -5.64e-4,5.566e-4 c -0.913433,0.8971842 -2.409737,0.9232837 -3.312974,0.015829 -3.521583,-3.5380083 -3.40363,-9.2361023 -12.069692,-11.6305523 -1.234121,-0.340953 -0.928833,-2.325905 -0.0154,-3.223102 l 5.6e-4,-5.57e-4 c 0.913435,-0.897185 2.141162,-0.531624 3.312984,-0.01582 z m 22.564975,18.8722908 c 0.0022,-0.00807 0.0044,-0.015708 0.0064,-0.023575 -1.916883,-1.4186704 -2.752742,-3.6968714 -2.096932,-5.7152488 -0.02859,-0.02101 -0.05708,-0.04247 -0.08597,-0.06342 -1.553812,1.044111 -3.66963,1.222446 -5.567413,0.469266 l -0.257162,-0.108976 c -0.37693,-0.17068 -0.735576,-0.376491 -1.070343,-0.612729 0.531195,1.229582 0.550656,2.5574067 0.05457,3.723627 -0.355161,0.8266149 -0.95466,1.5350666 -1.737394,2.0531597 0.01471,0.029943 0.02963,0.059703 0.0449,0.08939 0.662911,0.061091 1.318389,0.2256157 1.937076,0.4862192 1.425943,0.6034782 2.570638,1.6811651 3.17793,2.9917056 0.03742,0.00206 0.07489,0.00382 0.112373,0.00522 0.04913,-0.1542444 0.106682,-0.3056364 0.172266,-0.4537227 0.870677,-1.8910939 2.973651,-3.0163107 5.309882,-2.8411147 z M 80.554317,9.8770912 c 2.027924,-3.8361168 4.351027,-7.5045346 4.440356,-12.4419871 0.458614,-1.285057 1.840605,-1.8943188 3.098644,-1.3660551 l 7.72e-4,3.252e-4 c 1.258039,0.5282637 1.901604,1.9880812 1.442991,3.27313783 -0.0126,4.36508487 -1.736269,8.47627617 -4.440349,12.44199197 -0.458622,1.285055 -1.840617,1.89432 -3.098644,1.366058 l -7.73e-4,-3.24e-4 C 80.739276,12.621974 80.095702,11.162151 80.554317,9.8770912 Z m 9.217164,11.5787968 c 0.0032,-0.01036 0.0061,-0.02094 0.0095,-0.0312 -2.396127,-1.739083 -3.343167,-4.663958 -2.37582,-7.337565 -0.03557,-0.02621 -0.0713,-0.05211 -0.107391,-0.07771 -2.071588,1.454626 -4.819192,1.812135 -7.229831,0.940726 L 79.741562,14.823 c -0.477568,-0.200592 -0.929667,-0.447625 -1.348523,-0.736856 0.614709,1.573873 0.561626,3.306194 -0.148864,4.857902 -0.508155,1.100055 -1.325433,2.060268 -2.368549,2.782767 0.01724,0.03821 0.03482,0.07627 0.05274,0.114161 0.853965,0.04068 1.692227,0.216841 2.477223,0.520593 1.809042,0.703864 3.226366,2.043253 3.934715,3.718362 0.04835,5.24e-4 0.09667,5.72e-4 0.14501,2.64e-4 0.07271,-0.204234 0.155922,-0.405313 0.24956,-0.60248 1.237781,-2.520092 4.024582,-4.112991 7.03647,-4.021953 z M 62.142949,14.795552 c 4.947718,-0.477289 8.779411,0.279251 11.869493,1.855678 1.167853,0.595827 2.232297,1.415694 2.100831,2.720145 l -8e-5,8.05e-4 c -0.131467,1.304448 -1.570393,2.830946 -2.575433,1.989057 -2.779726,-2.328491 -6.931707,-2.663012 -11.869494,-1.855676 -1.293883,0.21155 -2.232297,-1.415698 -2.100829,-2.720145 l 7.9e-5,-8.06e-4 c 0.131467,-1.304448 1.270431,-1.863167 2.575433,-1.989058 z m -9.599378,1.891807 c -3.99e-4,0.006 1.1e-4,0.01227 -1.73e-4,0.01829 1.456172,0.618037 2.354302,2.076704 2.253117,3.659328 0.02161,0.0095 0.0433,0.01868 0.06511,0.02771 0.832445,-1.071181 2.163152,-1.638841 3.501512,-1.493704 l 0.182516,0.02461 c 0.269176,0.04392 0.532236,0.116519 0.784656,0.216537 -0.536152,-0.770615 -0.759198,-1.71803 -0.62549,-2.656823 0.09704,-0.666144 0.369804,-1.298414 0.790353,-1.832408 -0.01416,-0.01841 -0.02847,-0.03665 -0.04299,-0.0548 -0.435471,0.09405 -0.882573,0.112432 -1.321279,0.05433 -1.011566,-0.136013 -1.917696,-0.670229 -2.515564,-1.483061 -0.02444,0.0063 -0.04876,0.01278 -0.07301,0.01955 -0.0071,0.12073 -0.02004,0.241178 -0.0387,0.36092 -0.259368,1.536083 -1.431699,2.779578 -2.960035,3.139734 z M 36.610042,32.392663 c 2.22e-4,0.0077 4.5e-4,0.01536 7.6e-4,0.02296 1.891027,0.867043 3.122273,2.76046 3.088803,4.749977 0.02811,0.01317 0.05625,0.02618 0.08459,0.03882 0.995227,-1.300562 2.6551,-1.936193 4.367666,-1.672549 l 0.233839,0.04203 c 0.34532,0.0716 0.684586,0.178966 1.011955,0.320267 -0.72898,-1.004011 -1.070016,-2.212102 -0.956342,-3.387816 0.08341,-0.834126 0.392706,-1.614906 0.895785,-2.262948 -0.01916,-0.02405 -0.03848,-0.04791 -0.05803,-0.07165 -0.548731,0.09231 -1.116806,0.0886 -1.678811,-0.0111 -1.295986,-0.23245 -2.481727,-0.960656 -3.291811,-2.021614 -0.03072,0.0065 -0.06134,0.0132 -0.09181,0.02022 -0.0017,0.151831 -0.01097,0.302917 -0.02748,0.452793 -0.237647,1.921296 -1.655166,3.41866 -3.57914,3.780726 z m -3.346524,3.859756 1.541028,-1.325045 c 1.045145,-0.898661 2.576156,-0.752765 3.432753,0.327123 l 5.28e-4,6.63e-4 c 0.856598,1.079889 0.704814,2.672725 -0.340335,3.571387 l -1.541028,1.325044 c -1.045145,0.898659 -2.576157,0.752762 -3.432754,-0.327124 l -5.27e-4,-6.66e-4 C 32.066585,38.743916 32.21837,37.151079 33.263518,36.252419 Z M 24.33464,63.269803 c -1.126516,-4.970142 0.350053,-9.557212 2.137232,-14.296469 0.482264,-1.278872 1.445493,-2.23327 2.787943,-1.976475 l 8.23e-4,1.56e-4 c 1.342438,0.256792 2.260498,1.551763 2.058417,2.903522 -2.33153,4.3959 -5.040529,5.291626 -2.137225,14.296472 -0.202082,1.351758 -1.445512,2.233265 -2.78795,1.976473 l -8.22e-4,-1.55e-4 C 25.050609,65.916531 24.132559,64.621561 24.33464,63.269803 Z M 43.243265,24.723611 c 2.868756,-1.124668 5.513427,-2.526149 6.321497,-6.184456 0.29646,-1.342337 2.544668,-0.941287 3.502307,0.04495 l 5.93e-4,6.09e-4 c 0.957637,0.986235 0.695658,2.357464 -0.04512,3.515473 -1.607728,2.513237 -3.780335,4.515531 -6.321498,6.184456 -1.149028,0.754635 -2.544666,0.941286 -3.502306,-0.04495 l -5.92e-4,-6.08e-4 c -0.957638,-0.986239 -1.234709,-3.013721 0.04512,-3.515473 z M 29.275637,67.664129 c -0.0047,-0.0061 -0.01,-0.01229 -0.01518,-0.01844 -1.931289,0.4849 -4.04021,-0.286782 -5.290601,-1.935899 -0.02891,0.007 -0.05767,0.01422 -0.08642,0.02167 0.109259,1.692808 -0.691077,3.261306 -2.105895,4.12725 l -0.196987,0.113451 c -0.297107,0.159513 -0.612732,0.285916 -0.941442,0.377041 1.173646,0.361135 2.195798,1.134292 2.866417,2.168148 0.473775,0.735231 0.749212,1.569407 0.798249,2.417509 0.02934,0.0076 0.05864,0.01491 0.0881,0.02198 0.340032,-0.422147 0.755735,-0.777875 1.228485,-1.051252 1.091785,-0.628337 2.421016,-0.781381 3.690147,-0.424877 0.01817,-0.02465 0.03615,-0.04947 0.05381,-0.0745 -0.09598,-0.125355 -0.186114,-0.254792 -0.270112,-0.38788 -1.058144,-1.722261 -0.986263,-3.842838 0.181471,-5.354303 z M 25.833929,39.942637 c -0.004,0.0061 -0.0078,0.01254 -0.01186,0.01885 1.197262,1.709212 1.255908,3.891856 0.147156,5.475546 0.01763,0.02564 0.0355,0.05116 0.05358,0.07652 1.583169,-0.514769 3.391753,-0.138837 4.758968,0.989204 l 0.183484,0.158828 c 0.26568,0.242304 0.506596,0.510171 0.71862,0.798996 -0.0982,-1.19807 0.25643,-2.352966 0.994466,-3.238648 0.52605,-0.626883 1.222222,-1.090185 2.017551,-1.342687 -0.0038,-0.02959 -0.0079,-0.05914 -0.01226,-0.08872 -0.534,-0.219088 -1.032941,-0.525863 -1.474454,-0.906688 -1.016766,-0.880157 -1.667388,-2.100453 -1.806222,-3.387738 -0.0305,-0.01126 -0.06115,-0.02203 -0.09188,-0.03275 -0.08389,0.121267 -0.173983,0.237983 -0.269871,0.349789 -1.251836,1.419587 -3.314178,1.866954 -5.207257,1.129567 z"
       inkscape:connector-curvature="0"
       sodipodi:nodetypes="sssssssssccccccccccccccccssccssccscccccccccccccccccccccccccccccccccccccccccssccssccsccccccccccccccccccccccccccccccccccccccccccscccccccssccssccscccccccccccccccccccccccccccccccc" />
  </g>
</svg>
