<?xml version="1.0" encoding="UTF-8" standalone="no"?>
<!-- Created with Inkscape (http://www.inkscape.org/) -->

<svg
   xmlns:dc="http://purl.org/dc/elements/1.1/"
   xmlns:cc="http://creativecommons.org/ns#"
   xmlns:rdf="http://www.w3.org/1999/02/22-rdf-syntax-ns#"
   xmlns:svg="http://www.w3.org/2000/svg"
   xmlns="http://www.w3.org/2000/svg"
   xmlns:sodipodi="http://sodipodi.sourceforge.net/DTD/sodipodi-0.dtd"
   xmlns:inkscape="http://www.inkscape.org/namespaces/inkscape"
   width="111.80659mm"
   height="55.591759mm"
   viewBox="0 0 111.80659 55.591759"
   version="1.1"
   id="svg8"
   sodipodi:docname="logo.svg"
   inkscape:version="0.92.3 (2405546, 2018-03-11)">
  <defs
     id="defs2" />
  <sodipodi:namedview
     id="base"
     pagecolor="#ffffff"
     bordercolor="#666666"
     borderopacity="1.0"
     inkscape:pageopacity="0.0"
     inkscape:pageshadow="2"
     inkscape:zoom="0.98994949"
     inkscape:cx="287.57399"
     inkscape:cy="138.30226"
     inkscape:document-units="mm"
     inkscape:current-layer="layer1"
     showgrid="false"
     inkscape:window-width="1920"
     inkscape:window-height="1024"
     inkscape:window-x="0"
     inkscape:window-y="32"
     inkscape:window-maximized="1" />
  <metadata
     id="metadata5">
    <rdf:RDF>
      <cc:Work
         rdf:about="">
        <dc:format>image/svg+xml</dc:format>
        <dc:type
           rdf:resource="http://purl.org/dc/dcmitype/StillImage" />
      </cc:Work>
    </rdf:RDF>
  </metadata>
  <g
     inkscape:label="Layer 1"
     inkscape:groupmode="layer"
     id="layer1"
     transform="translate(-41.8939,-52.258135)">
    <path
       style="opacity:1;fill:#7209aa;fill-opacity:1;stroke:#ffc72a;stroke-width:0.60000002;stroke-linecap:butt;stroke-linejoin:round;stroke-miterlimit:4;stroke-dasharray:none;stroke-dashoffset:0;stroke-opacity:1;paint-order:stroke fill markers"
       d="m 69.171387,72.534021 a 4.628033,5.0235351 0 0 0 -0.02194,0.0038 4.628033,5.0235351 0 0 1 -3.962095,3.782205 4.628033,5.0235351 0 0 0 -0.0208,0.09106 4.628033,5.0235351 0 0 1 2.458785,4.192936 l 0.0053,0.242616 a 4.628033,5.0235351 0 0 1 -0.110488,1.068927 4.628033,5.0235351 0 0 1 3.068957,-1.435026 4.628033,5.0235351 0 0 1 2.349176,0.595564 4.628033,5.0235351 0 0 0 0.05754,-0.06863 4.628033,5.0235351 0 0 1 -0.316668,-1.701706 4.628033,5.0235351 0 0 1 1.300777,-3.612086 4.628033,5.0235351 0 0 0 -0.03735,-0.09013 4.628033,5.0235351 0 0 1 -0.440458,0.0345 4.628033,5.0235351 0 0 1 -4.330832,-3.104083 z"
       id="path815"
       inkscape:connector-curvature="0" />
    <path
       style="opacity:1;fill:#7209aa;fill-opacity:1;stroke:#ffc72a;stroke-width:0.60000002;stroke-linecap:butt;stroke-linejoin:round;stroke-miterlimit:4;stroke-dasharray:none;stroke-dashoffset:0;stroke-opacity:1;paint-order:stroke fill markers"
       d="m 50.921267,93.682533 a 4.9782377,4.6701441 87.297712 0 0 0.0035,-0.0236 4.9782377,4.6701441 87.297712 0 1 -2.113325,-5.222267 4.9782377,4.6701441 87.297712 0 0 -0.07408,-0.04956 4.9782377,4.6701441 87.297712 0 1 -4.473535,1.206849 l -0.216273,-0.06997 a 4.9782377,4.6701441 87.297712 0 1 -0.911157,-0.445267 4.9782377,4.6701441 87.297712 0 1 0.314899,3.580235 4.9782377,4.6701441 87.297712 0 1 -1.257403,2.2137 4.9782377,4.6701441 87.297712 0 0 0.04281,0.0801 4.9782377,4.6701441 87.297712 0 1 1.60372,0.20587 4.9782377,4.6701441 87.297712 0 1 2.790515,2.451683 4.9782377,4.6701441 87.297712 0 0 0.09134,-0.0101 4.9782377,4.6701441 87.297712 0 1 0.106464,-0.46052 4.9782377,4.6701441 87.297712 0 1 4.092606,-3.457173 z"
       id="path815-3"
       inkscape:connector-curvature="0"
       inkscape:transform-center-x="4.2763135"
       inkscape:transform-center-y="4.2763108" />
    <rect
       style="opacity:1;fill:#7209aa;fill-opacity:1;stroke:#ffc72a;stroke-width:0.60000211;stroke-linecap:butt;stroke-linejoin:round;stroke-miterlimit:4;stroke-dasharray:none;stroke-dashoffset:0;stroke-opacity:1;paint-order:stroke fill markers"
       id="rect853-6"
       width="13.806317"
       height="4.9635844"
       x="94.334305"
       y="69.475319"
       ry="2.4813685"
       transform="matrix(0.99813732,0.06100735,-0.06475235,0.99790136,0,0)" />
    <rect
       style="opacity:1;fill:#7209aa;fill-opacity:1;stroke:#ffc72a;stroke-width:0.6002475;stroke-linecap:butt;stroke-linejoin:round;stroke-miterlimit:4;stroke-dasharray:none;stroke-dashoffset:0;stroke-opacity:1;paint-order:stroke fill markers"
       id="rect853-6-7"
       width="19.389565"
       height="4.9350681"
       x="-4.2425447"
       y="100.75165"
       ry="2.4671128"
       transform="matrix(0.83265246,-0.55379588,0.519535,0.85444917,0,0)"
       inkscape:transform-center-x="-1.6036172"
       inkscape:transform-center-y="-5.078121" />
    <rect
       style="opacity:1;fill:#7209aa;fill-opacity:1;stroke:#ffc72a;stroke-width:0.6002351;stroke-linecap:butt;stroke-linejoin:round;stroke-miterlimit:4;stroke-dasharray:none;stroke-dashoffset:0;stroke-opacity:1;paint-order:stroke fill markers"
       id="rect853-6-5"
       width="7.00845"
       height="4.9769344"
       x="85.834053"
       y="65.417519"
       ry="2.4880421"
       transform="matrix(0.99215964,0.124977,-0.16413926,0.98643718,0,0)" />
    <path
       style="opacity:1;fill:#7209aa;fill-opacity:1;stroke:#ffc72a;stroke-width:0.60000002;stroke-linecap:butt;stroke-linejoin:round;stroke-miterlimit:4;stroke-dasharray:none;stroke-dashoffset:0;stroke-opacity:1;paint-order:stroke fill markers"
       d="m 81.999424,75.461171 a 5.010188,4.6403622 86.546437 0 0 -0.01665,0.01581 5.010188,4.6403622 86.546437 0 1 -1.450663,5.477101 5.010188,4.6403622 86.546437 0 0 0.02799,0.0888 5.010188,4.6403622 86.546437 0 1 4.170308,2.117182 l 0.12569,0.201626 a 5.010188,4.6403622 86.546437 0 1 0.441279,0.965349 5.010188,4.6403622 86.546437 0 1 1.870948,-2.981855 5.010188,4.6403622 86.546437 0 1 2.27916,-0.853693 5.010188,4.6403622 86.546437 0 0 0.0142,-0.09109 5.010188,4.6403622 86.546437 0 1 -1.117941,-1.252489 5.010188,4.6403622 86.546437 0 1 -0.708932,-3.797413 5.010188,4.6403622 86.546437 0 0 -0.07658,-0.05445 5.010188,4.6403622 86.546437 0 1 -0.354245,0.283347 5.010188,4.6403622 86.546437 0 1 -5.204824,-0.118198 z"
       id="path815-35"
       inkscape:connector-curvature="0" />
    <path
       style="opacity:1;fill:#7209aa;fill-opacity:1;stroke:#ffc72a;stroke-width:0.60000002;stroke-linecap:butt;stroke-linejoin:round;stroke-miterlimit:4;stroke-dasharray:none;stroke-dashoffset:0;stroke-opacity:1;paint-order:stroke fill markers"
       d="m 104.33532,76.742437 a 3.8513306,3.7690305 12.648083 0 0 -0.0138,0.01192 3.8513306,3.7690305 12.648083 0 1 -1.20241,4.1257 3.8513306,3.7690305 12.648083 0 0 0.0232,0.0669 3.8513306,3.7690305 12.648083 0 1 3.45664,1.594796 l 0.10419,0.151872 a 3.8513306,3.7690305 12.648083 0 1 0.36577,0.72717 3.8513306,3.7690305 12.648083 0 1 1.55077,-2.246121 3.8513306,3.7690305 12.648083 0 1 1.88914,-0.643064 3.8513306,3.7690305 12.648083 0 0 0.0118,-0.06862 3.8513306,3.7690305 12.648083 0 1 -0.92663,-0.943452 3.8513306,3.7690305 12.648083 0 1 -0.58761,-2.860455 3.8513306,3.7690305 12.648083 0 0 -0.0635,-0.04099 3.8513306,3.7690305 12.648083 0 1 -0.29362,0.213437 3.8513306,3.7690305 12.648083 0 1 -4.31414,-0.08904 z"
       id="path815-35-6"
       inkscape:connector-curvature="0" />
    <rect
       style="opacity:1;fill:#7209aa;fill-opacity:1;stroke:#ffc72a;stroke-width:0.60044825;stroke-linecap:butt;stroke-linejoin:round;stroke-miterlimit:4;stroke-dasharray:none;stroke-dashoffset:0;stroke-opacity:1;paint-order:stroke fill markers"
       id="rect853-6-2"
       width="16.746744"
       height="4.7338653"
       x="130.86104"
       y="-48.612869"
       ry="2.3665283"
       transform="matrix(0.54821307,0.83633871,-0.80515021,0.59307095,0,0)" />
    <path
       style="opacity:1;fill:#7209aa;fill-opacity:1;stroke:#ffc72a;stroke-width:0.60000002;stroke-linecap:butt;stroke-linejoin:round;stroke-miterlimit:4;stroke-dasharray:none;stroke-dashoffset:0;stroke-opacity:1;paint-order:stroke fill markers"
       d="m 125.77201,107.5503 a 7.373207,6.7273129 44.850471 0 0 0.0296,-0.0137 7.373207,6.7273129 44.850471 0 1 3.84796,-6.68413 7.373207,6.7273129 44.850471 0 0 -0.0144,-0.13178 7.373207,6.7273129 44.850471 0 1 -5.54756,-4.730745 l -0.12466,-0.327326 a 7.373207,6.7273129 44.850471 0 1 -0.35814,-1.494382 7.373207,6.7273129 44.850471 0 1 -3.70259,3.148364 7.373207,6.7273129 44.850471 0 1 -3.65263,0.110151 7.373207,6.7273129 44.850471 0 0 -0.0493,0.115669 7.373207,6.7273129 44.850471 0 1 1.27568,2.186386 7.373207,6.7273129 44.850471 0 1 -0.11814,5.412423 7.373207,6.7273129 44.850471 0 0 0.0971,0.1077 7.373207,6.7273129 44.850471 0 1 0.61422,-0.21908 7.373207,6.7273129 44.850471 0 1 7.70296,2.52041 z"
       id="path815-35-9"
       inkscape:connector-curvature="0" />
    <rect
       style="opacity:1;fill:#7209aa;fill-opacity:1;stroke:#ffc72a;stroke-width:0.60045016;stroke-linecap:butt;stroke-linejoin:round;stroke-miterlimit:4;stroke-dasharray:none;stroke-dashoffset:0;stroke-opacity:1;paint-order:stroke fill markers"
       id="rect853-6-2-1"
       width="18.136381"
       height="4.9266295"
       x="87.80632"
       y="135.11041"
       ry="2.4628944"
       transform="matrix(0.92394949,-0.38251449,0.33137251,0.9435,0,0)" />
    <path
       style="opacity:1;fill:#7209aa;fill-opacity:1;stroke:#ffc72a;stroke-width:0.60000002;stroke-linecap:butt;stroke-linejoin:round;stroke-miterlimit:4;stroke-dasharray:none;stroke-dashoffset:0;stroke-opacity:1;paint-order:stroke fill markers"
       d="m 150.5468,94.339335 a 5.7867529,5.0859947 67.413269 0 0 0.0218,-0.01105 5.7867529,5.0859947 67.413269 0 1 2.8319,-5.389017 5.7867529,5.0859947 67.413269 0 0 -0.0106,-0.106243 5.7867529,5.0859947 67.413269 0 1 -4.08273,-3.814121 l -0.0917,-0.263908 a 5.7867529,5.0859947 67.413269 0 1 -0.26358,-1.204826 5.7867529,5.0859947 67.413269 0 1 -2.72492,2.538336 5.7867529,5.0859947 67.413269 0 1 -2.68814,0.08881 5.7867529,5.0859947 67.413269 0 0 -0.0362,0.09326 5.7867529,5.0859947 67.413269 0 1 0.93883,1.762747 5.7867529,5.0859947 67.413269 0 1 -0.0869,4.363715 5.7867529,5.0859947 67.413269 0 0 0.0715,0.08684 5.7867529,5.0859947 67.413269 0 1 0.45204,-0.17664 5.7867529,5.0859947 67.413269 0 1 5.66899,2.032061 z"
       id="path815-35-9-2"
       inkscape:connector-curvature="0"
       inkscape:transform-center-x="-1.0690776"
       inkscape:transform-center-y="-0.5345537" />
    <rect
       style="opacity:1;fill:#7209aa;fill-opacity:1;stroke:#ffc72a;stroke-width:0.60011345;stroke-linecap:butt;stroke-linejoin:round;stroke-miterlimit:4;stroke-dasharray:none;stroke-dashoffset:0;stroke-opacity:1;paint-order:stroke fill markers"
       id="rect853-6-2-1-7"
       width="21.383677"
       height="4.6229887"
       x="53.72308"
       y="-151.43813"
       ry="2.3110993"
       transform="matrix(-0.03155518,0.99950201,-0.99825656,-0.05902411,0,0)" />
    <path
       style="opacity:1;fill:#7209aa;fill-opacity:1;stroke:#ffc72a;stroke-width:0.60000002;stroke-linecap:butt;stroke-linejoin:round;stroke-miterlimit:4;stroke-dasharray:none;stroke-dashoffset:0;stroke-opacity:1;paint-order:stroke fill markers"
       d="m 148.42998,60.065701 a 5.4619726,6.4244846 48.587663 0 0 0.015,-0.02617 5.4619726,6.4244846 48.587663 0 1 -0.11619,-6.623782 5.4619726,6.4244846 48.587663 0 0 -0.0655,-0.07824 5.4619726,6.4244846 48.587663 0 1 -5.90219,0.133035 l -0.22605,-0.141789 a 5.4619726,6.4244846 48.587663 0 1 -0.88334,-0.770676 5.4619726,6.4244846 48.587663 0 1 -1.27528,4.221673 5.4619726,6.4244846 48.587663 0 1 -2.52367,2.201287 5.4619726,6.4244846 48.587663 0 0 0.0142,0.104518 5.4619726,6.4244846 48.587663 0 1 1.82132,0.68941 5.4619726,6.4244846 48.587663 0 1 2.20346,3.616217 5.4619726,6.4244846 48.587663 0 0 0.11377,0.01408 5.4619726,6.4244846 48.587663 0 1 0.33965,-0.501627 5.4619726,6.4244846 48.587663 0 1 6.48506,-2.838076 z"
       id="path815-35-9-0"
       inkscape:connector-curvature="0" />
    <rect
       style="opacity:1;fill:#7209aa;fill-opacity:1;stroke:#ffc72a;stroke-width:0.60101199;stroke-linecap:butt;stroke-linejoin:round;stroke-miterlimit:4;stroke-dasharray:none;stroke-dashoffset:0;stroke-opacity:1;paint-order:stroke fill markers"
       id="rect853-6-2-1-9"
       width="32.912025"
       height="4.9039478"
       x="69.529465"
       y="119.66461"
       ry="2.4515553"
       transform="matrix(0.87683259,-0.48079581,0.40730824,0.91329075,0,0)"
       inkscape:transform-center-x="-0.73149654"
       inkscape:transform-center-y="-1.0681632" />
  </g>
</svg>
