<?xml version="1.0" encoding="UTF-8"?>
<svg xmlns="http://www.w3.org/2000/svg" xmlns:xlink="http://www.w3.org/1999/xlink" width="369" height="204">
	<defs>
		<linearGradient id="g">
			<stop offset="0" stop-color="#043e04"/>
			<stop offset=".426" stop-color="#0c7b0c"/>
			<stop offset="1" stop-color="#040a04"/>
		</linearGradient>
		<linearGradient id="f">
			<stop offset="0" stop-color="#0f1e0f"/>
			<stop offset=".707" stop-color="#306b30"/>
			<stop offset="1" stop-color="#152915"/>
		</linearGradient>
		<linearGradient id="e">
			<stop offset="0" stop-color="#041c04"/>
			<stop offset="1" stop-color="#041c04" stop-opacity=".285"/>
		</linearGradient>
		<linearGradient id="d">
			<stop offset="0" stop-color="#109810"/>
			<stop offset="1" stop-color="#18b618"/>
		</linearGradient>
		<linearGradient id="c">
			<stop offset="0" stop-color="#042304"/>
			<stop offset="1" stop-color="#021a02" stop-opacity=".537"/>
		</linearGradient>
		<linearGradient id="b">
			<stop offset="0" stop-color="#044704"/>
			<stop offset="1" stop-color="#043304"/>
		</linearGradient>
		<linearGradient id="a">
			<stop offset="0" stop-color="#2ce22c"/>
			<stop offset="1" stop-color="#2f602f" stop-opacity=".752"/>
		</linearGradient>
		<radialGradient id="n" cx="192.051" cy="11.977" r="181.58" fx="192.051" fy="11.977" gradientTransform="matrix(-1.06333 0 0 -.79928 396.265 63.137)" gradientUnits="userSpaceOnUse" xlink:href="#a"/>
		<linearGradient id="m" x1="182.75" x2="231.5" y1="65.49" y2="65.49" gradientUnits="userSpaceOnUse" xlink:href="#b"/>
		<linearGradient id="k" x1="6.329" x2="78.025" y1="190.043" y2="190.043" gradientUnits="userSpaceOnUse" xlink:href="#c"/>
		<linearGradient id="l" x1="159.565" x2="156.585" y1="179.45" y2="38.454" gradientUnits="userSpaceOnUse" xlink:href="#d"/>
		<linearGradient id="i" x1="297.904" x2="330.265" y1="95.861" y2="162.266" gradientUnits="userSpaceOnUse" xlink:href="#e"/>
		<linearGradient id="h" x1="296.557" x2="345.318" y1="92.614" y2="157.641" gradientUnits="userSpaceOnUse" xlink:href="#f"/>
		<linearGradient id="j" x1="234.5" x2="314.741" y1="36.438" y2="188.288" gradientUnits="userSpaceOnUse" xlink:href="#g"/>
	</defs>
	<path fill="#2f662f" d="M107.634 167.421L78.025 197.61c-34.457 2.294-49.97-.194-55.76-4.51-8.574-6.391 9.532-30.388 45.12-65.812-62.96 3.078-60.056-10.785-18.275-36.664l3.817 1.966c-6.002 13.314 34.003 6.86 48.808 4.395l2.314 5.205c-39.796 40.762-54.471 56.5-50.594 63.936 4.19 8.035 28.94 5.39 54.179 1.296zm123.64-110.86l-2.85-3.962c32.67-22.222 46.038-36.43 49.373-14.145 1.94 12.959.64 48.599 1.823 87.792 1.04 34.458 8.876 56.845 38.639 46.492 22.477-22.292-7.103-69.994-28.318-61.193l-1.247-3.005c22.716-17.666 38.087-26.266 57.372-.091 9.146 12.413 9.757 33.05-.748 49.192-6.958 10.693-18.724 20.765-30.577 30.647-26.06 21.728-64.252 5.318-63.782-38.04.226-20.854.394-66.012-2.491-85.204-1.846-12.276-7.91-13.98-17.194-8.483zm-121.905 0l-2.976-4.15c33.826-21.99 46.857-36.241 50.192-13.957 1.94 12.959 2.295 101.79 2.98 140.996l-33.888 20.587c1.442-20.805 3.935-114.982.285-133.78-2.245-11.556-7.216-14.91-16.593-9.696zm74.022 13.706l27.065-18.968c4.973 6.356 8.971 13.826 18.043 15.498-16.127 12.614-32.56 28.447-45.108 3.47zm-8.927 48.464l-1.85-3.932c33.247-22.8 43.208-32.53 48.278-14.467 3.541 12.616 3.682 40.838 4.368 80.043L192.875 200.5c1.16-20.84 1.074-54.633-1.443-73.355-1.514-11.257-7.977-12.481-16.968-8.414z"/>
	<g>
		<path fill="url(#h)" d="M335.818 169.641c20.255-24.392 19.394-48.78 10.248-61.192-19.285-26.175-34.656-17.575-57.372.091l7.863-15.926c24.55-19.093 41.162-28.387 62.005-.099 9.884 13.416 10.544 35.72-.808 53.165-5.851 9.198-14.475 16.373-21.936 23.961z"/>
		<path fill="#072f07" d="M228 170.25L193 192l-.125 8.5 32.385-20.125z"/>
		<path fill="#1d3b1d" d="M20.654 122.343L5.747 106.252c-4.506-6.705 7.626-17.98 31.878-33.002l4.125 2.125 11.177 17.214-3.817-1.966C25.175 105.448 14 116.33 20.654 122.343z"/>
		<path fill="#043104" d="M20.654 122.343c4.963 4.483 19.838 6.259 46.73 4.944l-10.009-14.412c-31.499 1.54-47.744-.844-51.628-6.623z"/>
		<path fill="#1e381e" d="M6.329 181.653c-10.055-12.321 12.585-30.494 51.046-68.778l10.01 14.412c-35.588 35.424-53.459 59.377-45.12 65.812z"/>
		<path fill="#041c04" fill-opacity=".851" d="M53.09 97.326c-.928-1.188-1.063-2.74-.163-4.737L41.75 75.375c-1.006 2.232-.816 3.95.284 5.25z"/>
		<path fill="#0d1d0d" d="M42.034 80.625c5.99 7.079 38.948 1.75 52.466-.5l7.235 16.86c-12.584 2.094-43.377 7.072-48.644.34z"/>
		<path fill="#010601" fill-opacity=".502" d="M53.455 166.125c-3.877-7.436 10.798-23.174 50.594-63.936L97 85.75c-43.01 44.053-58.87 61.062-54.679 69.099z"/>
		<path fill="#2f5b2f" d="M107.634 167.421c-25.24 4.094-49.99 6.739-54.179-1.296l-11.134-11.276c4.528 8.683 31.277 5.826 58.554 1.401z"/>
		<path fill="#041c04" fill-opacity=".851" d="M330.265 162.266c-32.166 11.189-42.39-13.276-43.515-50.516-1.279-42.359.125-80.876-1.97-94.882-3.605-24.084-17.973-8.76-53.28 15.257l-3.076 20.224c32.67-22.222 46.038-36.18 49.373-13.895 1.94 12.959.64 48.599 1.823 87.792 1.04 34.458 8.876 56.845 38.639 46.492z"/>
		<path fill="url(#i)" d="M330.265 162.266l-12.006 10.472c22.477-22.292-7.103-69.994-28.318-61.193l-1.247-3.005 7.863-15.926 1.347 3.247c22.929-9.511 56.653 42.313 32.36 66.405z"/>
		<path fill="url(#j)" d="M314.74 188.288c-26.058 21.728-64.251 5.318-63.781-38.04.226-20.854.394-66.012-2.491-85.204-1.846-12.276-7.91-13.98-17.194-8.483l-2.85-3.962 3.076-20.474 3 4.313c10.033-5.942 17.286-3.175 19.933 9.978 4.083 20.29 2.936 69.546 2.692 92.084-.508 46.86 38.918 66.535 74.331 35.927"/>
		<path fill="#041c04" fill-opacity=".851" d="M109.369 56.561l-2.976-4.15-5.643-20.661 3 4.625"/>
		<path fill="#041c04" fill-opacity=".851" d="M106.393 52.411c33.826-21.99 46.857-36.241 50.192-13.957l-2.806-21.586c-3.604-24.084-16.472-8.885-53.029 14.882z"/>
		<path fill="#0a370a" d="M125.677 200.037c1.198-19.045 5.088-120.868-1.103-138.956l-5.678-20.502c6.678 12.752 3.479 104.829 1.479 150.921z"/>
		<path fill="#041c04" fill-opacity=".851" d="M124.574 61.081c-2.075-7.464-7.42-8.848-15.205-4.52l-5.619-20.186c8.142-4.527 13.066-3.307 15.146 4.204zm49.89 57.65l-1.85-3.932-.364-16.299 2 4.25z"/>
		<path d="M225.26 180.375c-.686-39.205-.827-67.427-4.368-80.043-5.07-18.062-15.031-8.334-48.279 14.467L172.25 98.5c35.932-24.642 45.55-34.278 51.03-14.757 3.826 13.635 3.979 44.136 4.72 86.507z"/>
		<path fill="#043f04" d="M192.875 200.5c.285-20.716.88-54.608-1.443-73.355-1.264-10.194-7.04-13.013-16.968-8.414l-.214-15.981c10.798-3.552 17.318-.726 18.683 10.291 2.51 20.262 2.007 55.873 1.254 78.522z"/>
		<path fill="#021a02" fill-opacity=".537" d="M100.875 156.25l-32 32.625 9.15 8.734 29.609-30.188z"/>
		<path fill="url(#k)" d="M68.875 188.875c-37.24 2.48-56.519.164-62.546-7.222l15.935 11.446c5.174 3.992 21.304 6.804 55.761 4.51z"/>
		<path fill="#062506" fill-opacity=".509" d="M159.565 179.45l-33.888 20.587-5.302-8.537L157 169.25z"/>
		<path fill="url(#l)" d="M153.78 16.868c2.095 14.006 2.479 110.01 3.22 152.382l2.565 10.2c-.685-39.206-1.04-128.037-2.98-140.996z"/>
		<path fill="url(#m)" d="M231.5 47.5c-17.43 13.633-35.19 30.744-48.75 3.75l.641 19.017c12.547 24.977 28.98 9.144 45.108-3.47z"/>
	</g>
	<path fill="url(#n)" d="M100.875 156.25l-32 32.625c-37.24 2.48-59.603-1.1-64.046-9.535-5.305-10.071 14.085-28.18 52.546-66.465-68.043 3.326-64.905-11.656-19.75-39.625l4.125 2.125c-6.486 14.39 36.75 7.413 52.75 4.75L97 85.75c-43.01 44.053-58.87 61.062-54.679 69.099 4.528 8.683 31.277 5.826 58.554 1.401zM234.5 36.437l-3-4.312c35.307-24.017 49.675-39.34 53.28-15.257 2.095 14.006.691 52.523 1.97 94.882 1.124 37.24 11.349 61.705 43.515 50.516 24.292-24.092-9.432-75.916-32.36-66.405l-1.348-3.247c24.55-19.093 41.162-28.387 62.005-.099 9.884 13.416 10.544 35.72-.808 53.165-7.52 11.556-20.237 22.441-33.048 33.122-28.163 23.483-68.089 6.558-67.581-40.302.244-22.538 1.39-71.795-2.692-92.084-2.647-13.153-9.9-15.92-19.933-9.978zm-130.75-.062l-3-4.625c36.557-23.767 49.425-38.966 53.03-14.882 2.095 14.006 2.479 110.01 3.22 152.382l-36.625 22.25c1.559-22.485 4.253-124.268.308-144.584-2.426-12.489-6.798-16.176-16.933-10.541zm79 14.875L212 30.75c5.375 6.87 9.696 14.943 19.5 16.75-17.43 13.633-35.19 30.744-48.75 3.75zm-8.5 51.5l-2-4.25c35.932-24.642 45.55-34.278 51.03-14.757 3.826 13.635 3.979 44.136 4.72 86.507L193 192c1.253-22.524 1.694-58.072-.817-78.334-1.365-11.017-7.135-14.468-17.933-10.916z"/>
</svg>
